<svg width="895" height="330" viewBox="0 0 895 330" fill="none" xmlns="http://www.w3.org/2000/svg">
<path d="M47.9736 116.734L73.0957 32.3594H97.5586L60.4248 139H44.3115L47.9736 116.734ZM24.8291 32.3594L49.8779 116.734L53.6865 139H37.4268L0.512695 32.3594H24.8291ZM194.092 83.1895V88.2432C194.092 96.3486 192.993 103.624 190.796 110.069C188.599 116.515 185.498 122.008 181.494 126.549C177.49 131.041 172.705 134.483 167.139 136.876C161.621 139.269 155.493 140.465 148.755 140.465C142.065 140.465 135.938 139.269 130.371 136.876C124.854 134.483 120.068 131.041 116.016 126.549C111.963 122.008 108.813 116.515 106.567 110.069C104.37 103.624 103.271 96.3486 103.271 88.2432V83.1895C103.271 75.0352 104.37 67.7598 106.567 61.3633C108.765 54.918 111.865 49.4248 115.869 44.8838C119.922 40.3428 124.707 36.876 130.225 34.4834C135.791 32.0908 141.919 30.8945 148.608 30.8945C155.347 30.8945 161.475 32.0908 166.992 34.4834C172.559 36.876 177.344 40.3428 181.348 44.8838C185.4 49.4248 188.525 54.918 190.723 61.3633C192.969 67.7598 194.092 75.0352 194.092 83.1895ZM171.899 88.2432V83.043C171.899 77.3789 171.387 72.3984 170.361 68.1016C169.336 63.8047 167.822 60.1914 165.82 57.2617C163.818 54.332 161.377 52.1348 158.496 50.6699C155.615 49.1562 152.319 48.3994 148.608 48.3994C144.897 48.3994 141.602 49.1562 138.721 50.6699C135.889 52.1348 133.472 54.332 131.47 57.2617C129.517 60.1914 128.027 63.8047 127.002 68.1016C125.977 72.3984 125.464 77.3789 125.464 83.043V88.2432C125.464 93.8584 125.977 98.8389 127.002 103.185C128.027 107.481 129.541 111.119 131.543 114.098C133.545 117.027 135.986 119.249 138.867 120.763C141.748 122.276 145.044 123.033 148.755 123.033C152.466 123.033 155.762 122.276 158.643 120.763C161.523 119.249 163.94 117.027 165.894 114.098C167.847 111.119 169.336 107.481 170.361 103.185C171.387 98.8389 171.899 93.8584 171.899 88.2432ZM278.467 121.861V139H224.78V121.861H278.467ZM231.885 32.3594V139H209.912V32.3594H231.885ZM370.752 83.2627V125.523C369.092 127.525 366.528 129.698 363.062 132.042C359.595 134.337 355.127 136.314 349.658 137.975C344.189 139.635 337.573 140.465 329.81 140.465C322.925 140.465 316.65 139.342 310.986 137.096C305.322 134.801 300.439 131.456 296.338 127.062C292.285 122.667 289.16 117.296 286.963 110.948C284.766 104.552 283.667 97.252 283.667 89.0488V82.3838C283.667 74.1807 284.717 66.8809 286.816 60.4844C288.965 54.0879 292.017 48.6924 295.972 44.2979C299.927 39.9033 304.639 36.5586 310.107 34.2637C315.576 31.9688 321.655 30.8213 328.345 30.8213C337.622 30.8213 345.239 32.335 351.196 35.3623C357.153 38.3408 361.694 42.4912 364.819 47.8135C367.993 53.0869 369.946 59.1416 370.679 65.9775H349.365C348.828 62.3643 347.803 59.2148 346.289 56.5293C344.775 53.8437 342.603 51.7441 339.771 50.2305C336.987 48.7168 333.374 47.96 328.931 47.96C325.269 47.96 321.997 48.7168 319.116 50.2305C316.284 51.6953 313.892 53.8682 311.938 56.749C309.985 59.6299 308.496 63.1943 307.471 67.4424C306.445 71.6904 305.933 76.6221 305.933 82.2373V89.0488C305.933 94.6152 306.47 99.5469 307.544 103.844C308.618 108.092 310.205 111.681 312.305 114.61C314.453 117.491 317.09 119.664 320.215 121.129C323.34 122.594 326.978 123.326 331.128 123.326C334.595 123.326 337.476 123.033 339.771 122.447C342.114 121.861 343.994 121.153 345.41 120.323C346.875 119.444 347.998 118.614 348.779 117.833V98.9365H328.711V83.2627H370.752ZM431.836 50.5967L402.832 139H379.468L419.092 32.3594H433.96L431.836 50.5967ZM455.933 139L426.855 50.5967L424.512 32.3594H439.526L479.37 139H455.933ZM454.614 99.3027V116.515H398.291V99.3027H454.614ZM57.2021 208.359V315H35.3027V208.359H57.2021ZM90.0146 208.359V225.571H3.00293V208.359H90.0146ZM174.097 297.861V315H117.334V297.861H174.097ZM124.512 208.359V315H102.539V208.359H124.512ZM166.699 251.792V268.491H117.334V251.792H166.699ZM174.023 208.359V225.571H117.334V208.359H174.023ZM248.73 279.624H270.63C270.19 286.802 268.213 293.174 264.697 298.74C261.23 304.307 256.372 308.652 250.122 311.777C243.921 314.902 236.45 316.465 227.71 316.465C220.874 316.465 214.746 315.293 209.326 312.949C203.906 310.557 199.268 307.139 195.41 302.695C191.602 298.252 188.696 292.881 186.694 286.582C184.692 280.283 183.691 273.228 183.691 265.415V258.018C183.691 250.205 184.717 243.149 186.768 236.851C188.867 230.503 191.846 225.107 195.703 220.664C199.609 216.221 204.272 212.803 209.692 210.41C215.112 208.018 221.167 206.821 227.856 206.821C236.743 206.821 244.238 208.433 250.342 211.655C256.494 214.878 261.255 219.321 264.624 224.985C268.042 230.649 270.093 237.095 270.776 244.321H248.804C248.56 240.024 247.705 236.387 246.24 233.408C244.775 230.381 242.554 228.11 239.575 226.597C236.646 225.034 232.739 224.253 227.856 224.253C224.194 224.253 220.996 224.937 218.262 226.304C215.527 227.671 213.232 229.746 211.377 232.529C209.521 235.312 208.13 238.828 207.202 243.076C206.323 247.275 205.884 252.207 205.884 257.871V265.415C205.884 270.933 206.299 275.791 207.129 279.99C207.959 284.141 209.229 287.656 210.938 290.537C212.695 293.369 214.941 295.518 217.676 296.982C220.459 298.398 223.804 299.106 227.71 299.106C232.3 299.106 236.084 298.374 239.062 296.909C242.041 295.444 244.312 293.271 245.874 290.391C247.485 287.51 248.438 283.921 248.73 279.624ZM356.177 251.792V268.931H300.513V251.792H356.177ZM307.031 208.359V315H285.059V208.359H307.031ZM371.851 208.359V315H349.951V208.359H371.851Z" fill="white"/>
<path d="M422.746 248.648L436.211 206.812H445.949L427.598 258H421.023L422.746 248.648ZM410.301 206.812L423.66 248.648L425.488 258H418.879L400.598 206.812H410.301ZM492.004 231V233.812C492.004 237.68 491.5 241.148 490.492 244.219C489.484 247.289 488.043 249.902 486.168 252.059C484.316 254.215 482.09 255.867 479.488 257.016C476.887 258.141 474.004 258.703 470.84 258.703C467.699 258.703 464.828 258.141 462.227 257.016C459.648 255.867 457.41 254.215 455.512 252.059C453.613 249.902 452.137 247.289 451.082 244.219C450.051 241.148 449.535 237.68 449.535 233.812V231C449.535 227.133 450.051 223.676 451.082 220.629C452.113 217.559 453.566 214.945 455.441 212.789C457.34 210.609 459.578 208.957 462.156 207.832C464.758 206.684 467.629 206.109 470.77 206.109C473.934 206.109 476.816 206.684 479.418 207.832C482.02 208.957 484.258 210.609 486.133 212.789C488.008 214.945 489.449 217.559 490.457 220.629C491.488 223.676 492.004 227.133 492.004 231ZM483.18 233.812V230.93C483.18 228.07 482.898 225.551 482.336 223.371C481.797 221.168 480.988 219.328 479.91 217.852C478.855 216.352 477.555 215.227 476.008 214.477C474.461 213.703 472.715 213.316 470.77 213.316C468.824 213.316 467.09 213.703 465.566 214.477C464.043 215.227 462.742 216.352 461.664 217.852C460.609 219.328 459.801 221.168 459.238 223.371C458.676 225.551 458.395 228.07 458.395 230.93V233.812C458.395 236.672 458.676 239.203 459.238 241.406C459.801 243.609 460.621 245.473 461.699 246.996C462.801 248.496 464.113 249.633 465.637 250.406C467.16 251.156 468.895 251.531 470.84 251.531C472.809 251.531 474.555 251.156 476.078 250.406C477.602 249.633 478.891 248.496 479.945 246.996C481 245.473 481.797 243.609 482.336 241.406C482.898 239.203 483.18 236.672 483.18 233.812ZM532.891 251.004V258H507.191V251.004H532.891ZM509.652 206.812V258H500.828V206.812H509.652ZM576.695 231.844V251.391C575.969 252.352 574.832 253.406 573.285 254.555C571.762 255.68 569.734 256.652 567.203 257.473C564.672 258.293 561.52 258.703 557.746 258.703C554.535 258.703 551.594 258.164 548.922 257.086C546.25 255.984 543.941 254.379 541.996 252.27C540.074 250.16 538.586 247.594 537.531 244.57C536.477 241.523 535.949 238.055 535.949 234.164V230.613C535.949 226.746 536.43 223.301 537.391 220.277C538.375 217.23 539.781 214.652 541.609 212.543C543.438 210.434 545.641 208.84 548.219 207.762C550.82 206.66 553.762 206.109 557.043 206.109C561.238 206.109 564.707 206.812 567.449 208.219C570.215 209.602 572.348 211.523 573.848 213.984C575.348 216.445 576.297 219.258 576.695 222.422H568.047C567.766 220.641 567.215 219.047 566.395 217.641C565.598 216.234 564.449 215.133 562.949 214.336C561.473 213.516 559.551 213.105 557.184 213.105C555.145 213.105 553.352 213.492 551.805 214.266C550.258 215.039 548.969 216.176 547.938 217.676C546.93 219.176 546.168 221.004 545.652 223.16C545.137 225.316 544.879 227.777 544.879 230.543V234.164C544.879 236.977 545.172 239.473 545.758 241.652C546.367 243.832 547.234 245.672 548.359 247.172C549.508 248.672 550.902 249.809 552.543 250.582C554.184 251.332 556.035 251.707 558.098 251.707C560.113 251.707 561.766 251.543 563.055 251.215C564.344 250.863 565.363 250.453 566.113 249.984C566.887 249.492 567.484 249.023 567.906 248.578V238.418H557.254V231.844H576.695ZM606.402 213.633L591.109 258H581.863L601.129 206.812H607.035L606.402 213.633ZM619.199 258L603.871 213.633L603.203 206.812H609.145L628.48 258H619.199ZM618.461 239.016V246.012H590.617V239.016H618.461ZM650.84 206.812V258H642.086V206.812H650.84ZM666.906 206.812V213.844H626.16V206.812H666.906ZM707.16 251.004V258H679.984V251.004H707.16ZM682.48 206.812V258H673.656V206.812H682.48ZM703.609 228.188V235.078H679.984V228.188H703.609ZM706.984 206.812V213.844H679.984V206.812H706.984ZM744.602 241.336H753.391C753.109 244.688 752.172 247.676 750.578 250.301C748.984 252.902 746.746 254.953 743.863 256.453C740.98 257.953 737.477 258.703 733.352 258.703C730.188 258.703 727.34 258.141 724.809 257.016C722.277 255.867 720.109 254.25 718.305 252.164C716.5 250.055 715.117 247.512 714.156 244.535C713.219 241.559 712.75 238.23 712.75 234.551V230.297C712.75 226.617 713.23 223.289 714.191 220.312C715.176 217.336 716.582 214.793 718.41 212.684C720.238 210.551 722.43 208.922 724.984 207.797C727.562 206.672 730.457 206.109 733.668 206.109C737.746 206.109 741.191 206.859 744.004 208.359C746.816 209.859 748.996 211.934 750.543 214.582C752.113 217.23 753.074 220.266 753.426 223.688H744.637C744.402 221.484 743.887 219.598 743.09 218.027C742.316 216.457 741.168 215.262 739.645 214.441C738.121 213.598 736.129 213.176 733.668 213.176C731.652 213.176 729.895 213.551 728.395 214.301C726.895 215.051 725.641 216.152 724.633 217.605C723.625 219.059 722.863 220.852 722.348 222.984C721.855 225.094 721.609 227.508 721.609 230.227V234.551C721.609 237.129 721.832 239.473 722.277 241.582C722.746 243.668 723.449 245.461 724.387 246.961C725.348 248.461 726.566 249.621 728.043 250.441C729.52 251.262 731.289 251.672 733.352 251.672C735.859 251.672 737.887 251.273 739.434 250.477C741.004 249.68 742.188 248.52 742.984 246.996C743.805 245.449 744.344 243.562 744.602 241.336ZM795.227 228.188V235.184H768.051V228.188H795.227ZM770.23 206.812V258H761.406V206.812H770.23ZM802.012 206.812V258H793.223V206.812H802.012Z" fill="white"/>
<path d="M877.575 61.2628L826.393 60.5092L826.521 51.7562L877.703 52.5098L877.575 61.2628ZM877.338 77.3275L870.307 77.2239L870.907 36.4823L877.938 36.5858L877.338 77.3275ZM832.029 152.922L825.033 152.819L825.433 125.647L832.429 125.75L832.029 152.922ZM876.579 128.896L825.397 128.142L825.527 119.319L876.709 120.073L876.579 128.896ZM854.895 149.708L848.005 149.607L848.353 125.984L855.243 126.086L854.895 149.708ZM876.218 153.397L869.187 153.294L869.585 126.297L876.615 126.4L876.218 153.397ZM840.614 226.498L840.485 235.286C837.138 234.956 834.164 233.974 831.562 232.342C828.985 230.71 826.967 228.442 825.51 225.537C824.052 222.633 823.354 219.118 823.415 214.994C823.461 211.83 824.066 208.991 825.228 206.477C826.413 203.963 828.062 201.819 830.175 200.045C832.31 198.271 834.873 196.926 837.864 196.009C840.854 195.116 844.188 194.696 847.868 194.75L852.121 194.813C855.8 194.867 859.121 195.396 862.083 196.401C865.045 197.429 867.567 198.873 869.649 200.732C871.755 202.591 873.351 204.806 874.439 207.377C875.525 209.971 876.045 212.874 875.998 216.084C875.938 220.162 875.137 223.596 873.596 226.386C872.055 229.176 869.949 231.325 867.278 232.833C864.607 234.364 861.558 235.28 858.131 235.581L858.26 226.793C860.467 226.591 862.361 226.104 863.943 225.33C865.524 224.58 866.736 223.449 867.579 221.938C868.445 220.427 868.896 218.441 868.932 215.98C868.962 213.965 868.613 212.202 867.885 210.691C867.157 209.18 866.074 207.91 864.636 206.881C863.198 205.852 861.417 205.064 859.292 204.517C857.19 203.994 854.779 203.712 852.061 203.672L847.737 203.608C845.159 203.571 842.813 203.759 840.697 204.173C838.604 204.611 836.801 205.287 835.288 206.203C833.774 207.142 832.596 208.343 831.754 209.807C830.912 211.272 830.475 213.035 830.445 215.097C830.408 217.605 830.777 219.638 831.551 221.196C832.324 222.778 833.467 223.979 834.979 224.798C836.513 225.641 838.392 226.208 840.614 226.498ZM852.486 313.307L845.491 313.204L845.891 286.032L852.886 286.135L852.486 313.307ZM874.227 288.629L823.045 287.875L823.175 279.052L874.357 279.806L874.227 288.629ZM873.759 320.407L822.577 319.653L822.706 310.865L873.888 311.618L873.759 320.407Z" fill="white"/>
<path d="M422.082 301.656L424.523 293.434H426.027L425.617 295.895L423.156 304H421.809L422.082 301.656ZM420.646 293.434L422.551 301.695L422.707 304H421.203L418.342 293.434H420.646ZM428.312 301.598L430.158 293.434H432.453L429.602 304H428.098L428.312 301.598ZM426.281 293.434L428.693 301.559L428.996 304H427.648L425.158 295.885L424.748 293.434H426.281ZM436.574 293.434V304H434.211V293.434H436.574ZM434.055 290.66C434.055 290.302 434.172 290.006 434.406 289.771C434.647 289.531 434.979 289.41 435.402 289.41C435.819 289.41 436.148 289.531 436.389 289.771C436.63 290.006 436.75 290.302 436.75 290.66C436.75 291.012 436.63 291.305 436.389 291.539C436.148 291.773 435.819 291.891 435.402 291.891C434.979 291.891 434.647 291.773 434.406 291.539C434.172 291.305 434.055 291.012 434.055 290.66ZM443.996 293.434V295.152H438.039V293.434H443.996ZM439.758 290.846H442.111V301.08C442.111 301.406 442.157 301.656 442.248 301.832C442.346 302.001 442.479 302.115 442.648 302.174C442.818 302.232 443.016 302.262 443.244 302.262C443.407 302.262 443.563 302.252 443.713 302.232C443.863 302.213 443.983 302.193 444.074 302.174L444.084 303.971C443.889 304.029 443.661 304.081 443.4 304.127C443.146 304.173 442.854 304.195 442.521 304.195C441.981 304.195 441.503 304.101 441.086 303.912C440.669 303.717 440.344 303.401 440.109 302.965C439.875 302.529 439.758 301.949 439.758 301.227V290.846ZM448.137 289V304H445.793V289H448.137ZM447.727 298.326L446.965 298.316C446.971 297.587 447.072 296.913 447.268 296.295C447.469 295.676 447.749 295.139 448.107 294.684C448.472 294.221 448.908 293.867 449.416 293.619C449.924 293.365 450.487 293.238 451.105 293.238C451.626 293.238 452.095 293.31 452.512 293.453C452.935 293.596 453.299 293.827 453.605 294.146C453.911 294.459 454.143 294.869 454.299 295.377C454.462 295.878 454.543 296.49 454.543 297.213V304H452.18V297.193C452.18 296.686 452.105 296.282 451.955 295.982C451.812 295.683 451.6 295.468 451.32 295.338C451.04 295.201 450.699 295.133 450.295 295.133C449.872 295.133 449.497 295.217 449.172 295.387C448.853 295.556 448.586 295.787 448.371 296.08C448.156 296.373 447.993 296.712 447.883 297.096C447.779 297.48 447.727 297.89 447.727 298.326ZM459.26 295.689V304H456.906V293.434H459.123L459.26 295.689ZM458.84 298.326L458.078 298.316C458.085 297.568 458.189 296.881 458.391 296.256C458.599 295.631 458.885 295.094 459.25 294.645C459.621 294.195 460.064 293.85 460.578 293.609C461.092 293.362 461.665 293.238 462.297 293.238C462.805 293.238 463.264 293.31 463.674 293.453C464.09 293.59 464.445 293.814 464.738 294.127C465.038 294.439 465.266 294.846 465.422 295.348C465.578 295.842 465.656 296.451 465.656 297.174V304H463.293V297.164C463.293 296.656 463.218 296.256 463.068 295.963C462.925 295.663 462.714 295.452 462.434 295.328C462.16 295.198 461.818 295.133 461.408 295.133C461.005 295.133 460.643 295.217 460.324 295.387C460.005 295.556 459.735 295.787 459.514 296.08C459.299 296.373 459.133 296.712 459.016 297.096C458.898 297.48 458.84 297.89 458.84 298.326ZM470.578 293.434V304H468.215V293.434H470.578ZM468.059 290.66C468.059 290.302 468.176 290.006 468.41 289.771C468.651 289.531 468.983 289.41 469.406 289.41C469.823 289.41 470.152 289.531 470.393 289.771C470.633 290.006 470.754 290.302 470.754 290.66C470.754 291.012 470.633 291.305 470.393 291.539C470.152 291.773 469.823 291.891 469.406 291.891C468.983 291.891 468.651 291.773 468.41 291.539C468.176 291.305 468.059 291.012 468.059 290.66ZM475.529 289V304H473.166V289H475.529ZM482.092 293.434L477.492 298.531L474.973 301.109L474.357 299.117L476.262 296.764L479.25 293.434H482.092ZM479.758 304L476.33 299.039L477.814 297.389L482.482 304H479.758ZM486.105 293.434V304H483.742V293.434H486.105ZM483.586 290.66C483.586 290.302 483.703 290.006 483.938 289.771C484.178 289.531 484.51 289.41 484.934 289.41C485.35 289.41 485.679 289.531 485.92 289.771C486.161 290.006 486.281 290.302 486.281 290.66C486.281 291.012 486.161 291.305 485.92 291.539C485.679 291.773 485.35 291.891 484.934 291.891C484.51 291.891 484.178 291.773 483.938 291.539C483.703 291.305 483.586 291.012 483.586 290.66ZM493.527 293.434V295.152H487.57V293.434H493.527ZM489.289 290.846H491.643V301.08C491.643 301.406 491.688 301.656 491.779 301.832C491.877 302.001 492.01 302.115 492.18 302.174C492.349 302.232 492.548 302.262 492.775 302.262C492.938 302.262 493.094 302.252 493.244 302.232C493.394 302.213 493.514 302.193 493.605 302.174L493.615 303.971C493.42 304.029 493.192 304.081 492.932 304.127C492.678 304.173 492.385 304.195 492.053 304.195C491.512 304.195 491.034 304.101 490.617 303.912C490.201 303.717 489.875 303.401 489.641 302.965C489.406 302.529 489.289 301.949 489.289 301.227V290.846ZM501.301 301.881V296.842C501.301 296.464 501.232 296.139 501.096 295.865C500.959 295.592 500.751 295.38 500.471 295.23C500.197 295.081 499.852 295.006 499.436 295.006C499.051 295.006 498.719 295.071 498.439 295.201C498.16 295.331 497.941 295.507 497.785 295.729C497.629 295.95 497.551 296.201 497.551 296.48H495.207C495.207 296.064 495.308 295.66 495.51 295.27C495.712 294.879 496.005 294.531 496.389 294.225C496.773 293.919 497.232 293.678 497.766 293.502C498.299 293.326 498.898 293.238 499.562 293.238C500.357 293.238 501.06 293.372 501.672 293.639C502.29 293.906 502.775 294.309 503.127 294.85C503.485 295.383 503.664 296.054 503.664 296.861V301.559C503.664 302.04 503.697 302.473 503.762 302.857C503.833 303.235 503.934 303.564 504.064 303.844V304H501.652C501.542 303.746 501.454 303.424 501.389 303.033C501.33 302.636 501.301 302.252 501.301 301.881ZM501.643 297.574L501.662 299.029H499.973C499.536 299.029 499.152 299.072 498.82 299.156C498.488 299.234 498.212 299.352 497.99 299.508C497.769 299.664 497.603 299.853 497.492 300.074C497.382 300.296 497.326 300.546 497.326 300.826C497.326 301.106 497.391 301.363 497.521 301.598C497.652 301.826 497.84 302.005 498.088 302.135C498.342 302.265 498.648 302.33 499.006 302.33C499.488 302.33 499.908 302.232 500.266 302.037C500.63 301.835 500.917 301.591 501.125 301.305C501.333 301.012 501.444 300.735 501.457 300.475L502.219 301.52C502.141 301.786 502.007 302.073 501.818 302.379C501.63 302.685 501.382 302.978 501.076 303.258C500.777 303.531 500.415 303.756 499.992 303.932C499.576 304.107 499.094 304.195 498.547 304.195C497.857 304.195 497.242 304.059 496.701 303.785C496.161 303.505 495.738 303.131 495.432 302.662C495.126 302.187 494.973 301.65 494.973 301.051C494.973 300.491 495.077 299.996 495.285 299.566C495.5 299.13 495.812 298.766 496.223 298.473C496.639 298.18 497.147 297.958 497.746 297.809C498.345 297.652 499.029 297.574 499.797 297.574H501.643Z" fill="black"/>
<path d="M529.73 293.434V304H527.367V293.434H529.73ZM527.211 290.66C527.211 290.302 527.328 290.006 527.562 289.771C527.803 289.531 528.135 289.41 528.559 289.41C528.975 289.41 529.304 289.531 529.545 289.771C529.786 290.006 529.906 290.302 529.906 290.66C529.906 291.012 529.786 291.305 529.545 291.539C529.304 291.773 528.975 291.891 528.559 291.891C528.135 291.891 527.803 291.773 527.562 291.539C527.328 291.305 527.211 291.012 527.211 290.66ZM538.236 301.139C538.236 300.904 538.178 300.693 538.061 300.504C537.943 300.309 537.719 300.133 537.387 299.977C537.061 299.82 536.579 299.677 535.941 299.547C535.382 299.423 534.867 299.277 534.398 299.107C533.936 298.932 533.539 298.72 533.207 298.473C532.875 298.225 532.618 297.932 532.436 297.594C532.253 297.255 532.162 296.865 532.162 296.422C532.162 295.992 532.257 295.585 532.445 295.201C532.634 294.817 532.904 294.479 533.256 294.186C533.607 293.893 534.034 293.661 534.535 293.492C535.043 293.323 535.609 293.238 536.234 293.238C537.12 293.238 537.878 293.388 538.51 293.688C539.148 293.98 539.636 294.381 539.975 294.889C540.313 295.39 540.482 295.956 540.482 296.588H538.129C538.129 296.308 538.057 296.048 537.914 295.807C537.777 295.559 537.569 295.361 537.289 295.211C537.009 295.055 536.658 294.977 536.234 294.977C535.831 294.977 535.495 295.042 535.229 295.172C534.968 295.296 534.773 295.458 534.643 295.66C534.519 295.862 534.457 296.083 534.457 296.324C534.457 296.5 534.49 296.66 534.555 296.803C534.626 296.939 534.743 297.066 534.906 297.184C535.069 297.294 535.29 297.398 535.57 297.496C535.857 297.594 536.215 297.688 536.645 297.779C537.452 297.949 538.145 298.167 538.725 298.434C539.311 298.694 539.76 299.033 540.072 299.449C540.385 299.859 540.541 300.38 540.541 301.012C540.541 301.48 540.44 301.91 540.238 302.301C540.043 302.685 539.757 303.02 539.379 303.307C539.001 303.587 538.549 303.805 538.021 303.961C537.501 304.117 536.915 304.195 536.264 304.195C535.307 304.195 534.496 304.026 533.832 303.688C533.168 303.342 532.663 302.903 532.318 302.369C531.98 301.829 531.811 301.269 531.811 300.689H534.086C534.112 301.126 534.232 301.474 534.447 301.734C534.669 301.988 534.942 302.174 535.268 302.291C535.6 302.402 535.941 302.457 536.293 302.457C536.716 302.457 537.071 302.402 537.357 302.291C537.644 302.174 537.862 302.018 538.012 301.822C538.161 301.62 538.236 301.393 538.236 301.139ZM545.121 293.434V304H542.758V293.434H545.121ZM542.602 290.66C542.602 290.302 542.719 290.006 542.953 289.771C543.194 289.531 543.526 289.41 543.949 289.41C544.366 289.41 544.695 289.531 544.936 289.771C545.176 290.006 545.297 290.302 545.297 290.66C545.297 291.012 545.176 291.305 544.936 291.539C544.695 291.773 544.366 291.891 543.949 291.891C543.526 291.891 543.194 291.773 542.953 291.539C542.719 291.305 542.602 291.012 542.602 290.66ZM550.062 295.465V308.062H547.709V293.434H549.877L550.062 295.465ZM556.947 298.619V298.824C556.947 299.592 556.856 300.305 556.674 300.963C556.498 301.614 556.234 302.184 555.883 302.672C555.538 303.154 555.111 303.528 554.604 303.795C554.096 304.062 553.51 304.195 552.846 304.195C552.188 304.195 551.612 304.075 551.117 303.834C550.629 303.587 550.215 303.238 549.877 302.789C549.538 302.34 549.265 301.812 549.057 301.207C548.855 300.595 548.712 299.924 548.627 299.195V298.404C548.712 297.63 548.855 296.926 549.057 296.295C549.265 295.663 549.538 295.12 549.877 294.664C550.215 294.208 550.629 293.857 551.117 293.609C551.605 293.362 552.175 293.238 552.826 293.238C553.49 293.238 554.079 293.368 554.594 293.629C555.108 293.883 555.541 294.247 555.893 294.723C556.244 295.191 556.508 295.758 556.684 296.422C556.859 297.079 556.947 297.812 556.947 298.619ZM554.594 298.824V298.619C554.594 298.131 554.548 297.678 554.457 297.262C554.366 296.839 554.223 296.467 554.027 296.148C553.832 295.829 553.581 295.582 553.275 295.406C552.976 295.224 552.615 295.133 552.191 295.133C551.775 295.133 551.417 295.204 551.117 295.348C550.818 295.484 550.567 295.676 550.365 295.924C550.163 296.171 550.007 296.461 549.896 296.793C549.786 297.118 549.708 297.473 549.662 297.857V299.752C549.74 300.221 549.874 300.65 550.062 301.041C550.251 301.432 550.518 301.744 550.863 301.979C551.215 302.206 551.664 302.32 552.211 302.32C552.634 302.32 552.995 302.229 553.295 302.047C553.594 301.865 553.839 301.614 554.027 301.295C554.223 300.969 554.366 300.595 554.457 300.172C554.548 299.749 554.594 299.299 554.594 298.824ZM563.686 296.988V298.863H558.52V296.988H563.686ZM568.373 295.826H569.779C570.326 295.826 570.779 295.732 571.137 295.543C571.501 295.354 571.771 295.094 571.947 294.762C572.123 294.43 572.211 294.049 572.211 293.619C572.211 293.17 572.13 292.786 571.967 292.467C571.811 292.141 571.57 291.891 571.244 291.715C570.925 291.539 570.518 291.451 570.023 291.451C569.607 291.451 569.229 291.536 568.891 291.705C568.559 291.868 568.295 292.102 568.1 292.408C567.904 292.708 567.807 293.066 567.807 293.482H565.443C565.443 292.727 565.642 292.057 566.039 291.471C566.436 290.885 566.977 290.426 567.66 290.094C568.35 289.755 569.125 289.586 569.984 289.586C570.902 289.586 571.703 289.739 572.387 290.045C573.077 290.344 573.614 290.794 573.998 291.393C574.382 291.992 574.574 292.734 574.574 293.619C574.574 294.023 574.48 294.433 574.291 294.85C574.102 295.266 573.822 295.647 573.451 295.992C573.08 296.331 572.618 296.607 572.064 296.822C571.511 297.031 570.87 297.135 570.141 297.135H568.373V295.826ZM568.373 297.662V296.373H570.141C570.974 296.373 571.684 296.471 572.27 296.666C572.862 296.861 573.344 297.132 573.715 297.477C574.086 297.815 574.356 298.202 574.525 298.639C574.701 299.075 574.789 299.537 574.789 300.025C574.789 300.689 574.669 301.282 574.428 301.803C574.193 302.317 573.858 302.753 573.422 303.111C572.986 303.469 572.475 303.74 571.889 303.922C571.309 304.104 570.678 304.195 569.994 304.195C569.382 304.195 568.796 304.111 568.236 303.941C567.676 303.772 567.175 303.521 566.732 303.189C566.29 302.851 565.938 302.431 565.678 301.93C565.424 301.422 565.297 300.836 565.297 300.172H567.65C567.65 300.595 567.748 300.969 567.943 301.295C568.145 301.614 568.425 301.865 568.783 302.047C569.148 302.229 569.564 302.32 570.033 302.32C570.528 302.32 570.954 302.232 571.312 302.057C571.671 301.881 571.944 301.62 572.133 301.275C572.328 300.93 572.426 300.514 572.426 300.025C572.426 299.472 572.318 299.023 572.104 298.678C571.889 298.333 571.583 298.079 571.186 297.916C570.788 297.747 570.32 297.662 569.779 297.662H568.373ZM579.74 295.826H581.146C581.693 295.826 582.146 295.732 582.504 295.543C582.868 295.354 583.139 295.094 583.314 294.762C583.49 294.43 583.578 294.049 583.578 293.619C583.578 293.17 583.497 292.786 583.334 292.467C583.178 292.141 582.937 291.891 582.611 291.715C582.292 291.539 581.885 291.451 581.391 291.451C580.974 291.451 580.596 291.536 580.258 291.705C579.926 291.868 579.662 292.102 579.467 292.408C579.271 292.708 579.174 293.066 579.174 293.482H576.811C576.811 292.727 577.009 292.057 577.406 291.471C577.803 290.885 578.344 290.426 579.027 290.094C579.717 289.755 580.492 289.586 581.352 289.586C582.27 289.586 583.07 289.739 583.754 290.045C584.444 290.344 584.981 290.794 585.365 291.393C585.749 291.992 585.941 292.734 585.941 293.619C585.941 294.023 585.847 294.433 585.658 294.85C585.469 295.266 585.189 295.647 584.818 295.992C584.447 296.331 583.985 296.607 583.432 296.822C582.878 297.031 582.237 297.135 581.508 297.135H579.74V295.826ZM579.74 297.662V296.373H581.508C582.341 296.373 583.051 296.471 583.637 296.666C584.229 296.861 584.711 297.132 585.082 297.477C585.453 297.815 585.723 298.202 585.893 298.639C586.068 299.075 586.156 299.537 586.156 300.025C586.156 300.689 586.036 301.282 585.795 301.803C585.561 302.317 585.225 302.753 584.789 303.111C584.353 303.469 583.842 303.74 583.256 303.922C582.676 304.104 582.045 304.195 581.361 304.195C580.749 304.195 580.163 304.111 579.604 303.941C579.044 303.772 578.542 303.521 578.1 303.189C577.657 302.851 577.305 302.431 577.045 301.93C576.791 301.422 576.664 300.836 576.664 300.172H579.018C579.018 300.595 579.115 300.969 579.311 301.295C579.512 301.614 579.792 301.865 580.15 302.047C580.515 302.229 580.932 302.32 581.4 302.32C581.895 302.32 582.322 302.232 582.68 302.057C583.038 301.881 583.311 301.62 583.5 301.275C583.695 300.93 583.793 300.514 583.793 300.025C583.793 299.472 583.686 299.023 583.471 298.678C583.256 298.333 582.95 298.079 582.553 297.916C582.156 297.747 581.687 297.662 581.146 297.662H579.74Z" fill="black"/>
<path d="M621.18 155.098L628.406 136.562H633.816L623.934 159.844C623.621 160.56 623.263 161.257 622.859 161.934C622.469 162.598 621.993 163.19 621.434 163.711C620.874 164.232 620.197 164.648 619.402 164.961C618.608 165.26 617.645 165.41 616.512 165.41C616.212 165.41 615.848 165.397 615.418 165.371C615.001 165.345 614.695 165.319 614.5 165.293L614.539 161.445C614.695 161.471 614.956 161.491 615.32 161.504C615.698 161.517 615.971 161.523 616.141 161.523C616.896 161.523 617.495 161.4 617.938 161.152C618.38 160.892 618.732 160.547 618.992 160.117C619.266 159.674 619.507 159.193 619.715 158.672L621.18 155.098ZM615.75 136.562L622.898 152.305L624.305 157.422L620.496 157.559L610.398 136.562H615.75ZM653.582 143.867V165H648.875V143.867H653.582ZM651.59 153.223V156.953C651.017 157.201 650.372 157.428 649.656 157.637C648.953 157.832 648.211 157.995 647.43 158.125C646.648 158.242 645.861 158.301 645.066 158.301C643.204 158.301 641.596 158.014 640.242 157.441C638.901 156.868 637.866 155.99 637.137 154.805C636.421 153.607 636.062 152.09 636.062 150.254V143.848H640.75V150.254C640.75 151.309 640.906 152.148 641.219 152.773C641.544 153.398 642.026 153.848 642.664 154.121C643.302 154.395 644.103 154.531 645.066 154.531C645.874 154.531 646.635 154.479 647.352 154.375C648.068 154.258 648.777 154.102 649.48 153.906C650.184 153.711 650.887 153.483 651.59 153.223ZM663.465 158.125L671.766 143.867H676.473V165H671.766V150.723L663.465 165H658.758V143.867H663.465V158.125ZM690.086 161.641C690.854 161.641 691.544 161.491 692.156 161.191C692.781 160.879 693.283 160.449 693.66 159.902C694.051 159.355 694.266 158.724 694.305 158.008H698.738C698.712 159.375 698.309 160.618 697.527 161.738C696.746 162.858 695.711 163.75 694.422 164.414C693.133 165.065 691.707 165.391 690.145 165.391C688.53 165.391 687.124 165.117 685.926 164.57C684.728 164.01 683.732 163.242 682.938 162.266C682.143 161.289 681.544 160.163 681.141 158.887C680.75 157.611 680.555 156.243 680.555 154.785V154.102C680.555 152.643 680.75 151.276 681.141 150C681.544 148.711 682.143 147.578 682.938 146.602C683.732 145.625 684.728 144.863 685.926 144.316C687.124 143.757 688.523 143.477 690.125 143.477C691.818 143.477 693.302 143.815 694.578 144.492C695.854 145.156 696.857 146.087 697.586 147.285C698.328 148.47 698.712 149.85 698.738 151.426H694.305C694.266 150.645 694.07 149.941 693.719 149.316C693.38 148.678 692.898 148.171 692.273 147.793C691.661 147.415 690.926 147.227 690.066 147.227C689.116 147.227 688.328 147.422 687.703 147.812C687.078 148.19 686.59 148.711 686.238 149.375C685.887 150.026 685.633 150.762 685.477 151.582C685.333 152.389 685.262 153.229 685.262 154.102V154.785C685.262 155.658 685.333 156.504 685.477 157.324C685.62 158.145 685.867 158.88 686.219 159.531C686.583 160.169 687.078 160.684 687.703 161.074C688.328 161.452 689.122 161.641 690.086 161.641ZM705.848 150.586H712.078C713.901 150.586 715.451 150.892 716.727 151.504C718.003 152.116 718.973 152.969 719.637 154.062C720.314 155.143 720.652 156.38 720.652 157.773C720.652 158.802 720.464 159.759 720.086 160.645C719.708 161.517 719.148 162.279 718.406 162.93C717.677 163.581 716.779 164.089 715.711 164.453C714.656 164.818 713.445 165 712.078 165H702.723V143.867H707.449V161.27H712.078C713.016 161.27 713.764 161.107 714.324 160.781C714.884 160.456 715.288 160.033 715.535 159.512C715.796 158.991 715.926 158.438 715.926 157.852C715.926 157.253 715.796 156.686 715.535 156.152C715.288 155.618 714.884 155.182 714.324 154.844C713.764 154.505 713.016 154.336 712.078 154.336H705.848V150.586Z" fill="#8FBCFF"/>
<path d="M602.117 108.742H607C606.844 110.604 606.323 112.264 605.438 113.723C604.552 115.168 603.309 116.307 601.707 117.141C600.105 117.974 598.159 118.391 595.867 118.391C594.109 118.391 592.527 118.078 591.121 117.453C589.715 116.815 588.51 115.917 587.508 114.758C586.505 113.586 585.737 112.173 585.203 110.52C584.682 108.866 584.422 107.017 584.422 104.973V102.609C584.422 100.565 584.689 98.7161 585.223 97.0625C585.77 95.4089 586.551 93.9961 587.566 92.8242C588.582 91.6393 589.799 90.7344 591.219 90.1094C592.651 89.4844 594.259 89.1719 596.043 89.1719C598.309 89.1719 600.223 89.5885 601.785 90.4219C603.348 91.2552 604.559 92.4076 605.418 93.8789C606.29 95.3503 606.824 97.0365 607.02 98.9375H602.137C602.007 97.7135 601.72 96.6654 601.277 95.793C600.848 94.9206 600.21 94.2565 599.363 93.8008C598.517 93.332 597.41 93.0977 596.043 93.0977C594.923 93.0977 593.947 93.306 593.113 93.7227C592.28 94.1393 591.583 94.7513 591.023 95.5586C590.464 96.3659 590.04 97.362 589.754 98.5469C589.48 99.7188 589.344 101.06 589.344 102.57V104.973C589.344 106.405 589.467 107.707 589.715 108.879C589.975 110.038 590.366 111.034 590.887 111.867C591.421 112.701 592.098 113.345 592.918 113.801C593.738 114.257 594.721 114.484 595.867 114.484C597.26 114.484 598.387 114.263 599.246 113.82C600.118 113.378 600.776 112.733 601.219 111.887C601.674 111.027 601.974 109.979 602.117 108.742ZM614.812 96.8672H619.52L619.285 104.309C619.22 106.47 618.973 108.326 618.543 109.875C618.113 111.424 617.553 112.733 616.863 113.801C616.173 114.855 615.392 115.721 614.52 116.398C613.66 117.076 612.755 117.609 611.805 118H610.418V114.289L611.082 114.25C611.642 113.651 612.124 113.052 612.527 112.453C612.944 111.841 613.296 111.171 613.582 110.441C613.868 109.699 614.09 108.833 614.246 107.844C614.415 106.854 614.526 105.676 614.578 104.309L614.812 96.8672ZM616.062 96.8672H629.461V118H624.773V100.852H616.062V96.8672ZM609.344 114.25H632.352V124.289H627.645V118H614.109V124.289H609.324L609.344 114.25ZM647.625 113.762V103.684C647.625 102.928 647.488 102.277 647.215 101.73C646.941 101.184 646.525 100.76 645.965 100.461C645.418 100.161 644.728 100.012 643.895 100.012C643.126 100.012 642.462 100.142 641.902 100.402C641.342 100.663 640.906 101.014 640.594 101.457C640.281 101.9 640.125 102.401 640.125 102.961H635.438C635.438 102.128 635.639 101.32 636.043 100.539C636.447 99.7578 637.033 99.0612 637.801 98.4492C638.569 97.8372 639.487 97.3555 640.555 97.0039C641.622 96.6523 642.82 96.4766 644.148 96.4766C645.737 96.4766 647.143 96.7435 648.367 97.2773C649.604 97.8112 650.574 98.6185 651.277 99.6992C651.993 100.767 652.352 102.108 652.352 103.723V113.117C652.352 114.081 652.417 114.947 652.547 115.715C652.69 116.47 652.892 117.128 653.152 117.688V118H648.328C648.107 117.492 647.931 116.848 647.801 116.066C647.684 115.272 647.625 114.504 647.625 113.762ZM648.309 105.148L648.348 108.059H644.969C644.096 108.059 643.328 108.143 642.664 108.312C642 108.469 641.447 108.703 641.004 109.016C640.561 109.328 640.229 109.706 640.008 110.148C639.786 110.591 639.676 111.092 639.676 111.652C639.676 112.212 639.806 112.727 640.066 113.195C640.327 113.651 640.704 114.009 641.199 114.27C641.707 114.53 642.319 114.66 643.035 114.66C643.999 114.66 644.839 114.465 645.555 114.074C646.284 113.671 646.857 113.182 647.273 112.609C647.69 112.023 647.911 111.47 647.938 110.949L649.461 113.039C649.305 113.573 649.038 114.146 648.66 114.758C648.283 115.37 647.788 115.956 647.176 116.516C646.577 117.062 645.854 117.512 645.008 117.863C644.174 118.215 643.211 118.391 642.117 118.391C640.737 118.391 639.507 118.117 638.426 117.57C637.345 117.01 636.499 116.262 635.887 115.324C635.275 114.374 634.969 113.299 634.969 112.102C634.969 110.982 635.177 109.992 635.594 109.133C636.023 108.26 636.648 107.531 637.469 106.945C638.302 106.359 639.318 105.917 640.516 105.617C641.714 105.305 643.081 105.148 644.617 105.148H648.309ZM667.547 108.957H660.789L660.75 105.637H666.297C667.208 105.637 667.957 105.546 668.543 105.363C669.142 105.181 669.585 104.908 669.871 104.543C670.158 104.165 670.301 103.71 670.301 103.176C670.301 102.733 670.216 102.349 670.047 102.023C669.878 101.685 669.617 101.411 669.266 101.203C668.927 100.982 668.497 100.826 667.977 100.734C667.469 100.63 666.876 100.578 666.199 100.578H662.352V118H657.645V96.8672H666.199C667.553 96.8672 668.771 96.9844 669.852 97.2188C670.945 97.4531 671.876 97.8112 672.645 98.293C673.413 98.7747 673.999 99.3867 674.402 100.129C674.819 100.858 675.027 101.717 675.027 102.707C675.027 103.358 674.884 103.97 674.598 104.543C674.324 105.116 673.914 105.624 673.367 106.066C672.82 106.509 672.15 106.874 671.355 107.16C670.561 107.434 669.65 107.603 668.621 107.668L667.547 108.957ZM667.547 118H659.422L661.297 114.289H667.547C668.38 114.289 669.07 114.185 669.617 113.977C670.164 113.768 670.568 113.469 670.828 113.078C671.102 112.674 671.238 112.199 671.238 111.652C671.238 111.092 671.108 110.611 670.848 110.207C670.587 109.803 670.184 109.497 669.637 109.289C669.103 109.068 668.406 108.957 667.547 108.957H662.176L662.215 105.637H668.602L669.949 106.926C671.29 107.017 672.404 107.303 673.289 107.785C674.174 108.267 674.839 108.872 675.281 109.602C675.724 110.331 675.945 111.125 675.945 111.984C675.945 112.974 675.757 113.846 675.379 114.602C675.014 115.357 674.467 115.988 673.738 116.496C673.022 116.991 672.143 117.368 671.102 117.629C670.06 117.876 668.875 118 667.547 118ZM691.922 113.762V103.684C691.922 102.928 691.785 102.277 691.512 101.73C691.238 101.184 690.822 100.76 690.262 100.461C689.715 100.161 689.025 100.012 688.191 100.012C687.423 100.012 686.759 100.142 686.199 100.402C685.639 100.663 685.203 101.014 684.891 101.457C684.578 101.9 684.422 102.401 684.422 102.961H679.734C679.734 102.128 679.936 101.32 680.34 100.539C680.743 99.7578 681.329 99.0612 682.098 98.4492C682.866 97.8372 683.784 97.3555 684.852 97.0039C685.919 96.6523 687.117 96.4766 688.445 96.4766C690.034 96.4766 691.44 96.7435 692.664 97.2773C693.901 97.8112 694.871 98.6185 695.574 99.6992C696.29 100.767 696.648 102.108 696.648 103.723V113.117C696.648 114.081 696.714 114.947 696.844 115.715C696.987 116.47 697.189 117.128 697.449 117.688V118H692.625C692.404 117.492 692.228 116.848 692.098 116.066C691.98 115.272 691.922 114.504 691.922 113.762ZM692.605 105.148L692.645 108.059H689.266C688.393 108.059 687.625 108.143 686.961 108.312C686.297 108.469 685.743 108.703 685.301 109.016C684.858 109.328 684.526 109.706 684.305 110.148C684.083 110.591 683.973 111.092 683.973 111.652C683.973 112.212 684.103 112.727 684.363 113.195C684.624 113.651 685.001 114.009 685.496 114.27C686.004 114.53 686.616 114.66 687.332 114.66C688.296 114.66 689.135 114.465 689.852 114.074C690.581 113.671 691.154 113.182 691.57 112.609C691.987 112.023 692.208 111.47 692.234 110.949L693.758 113.039C693.602 113.573 693.335 114.146 692.957 114.758C692.579 115.37 692.085 115.956 691.473 116.516C690.874 117.062 690.151 117.512 689.305 117.863C688.471 118.215 687.508 118.391 686.414 118.391C685.034 118.391 683.803 118.117 682.723 117.57C681.642 117.01 680.796 116.262 680.184 115.324C679.572 114.374 679.266 113.299 679.266 112.102C679.266 110.982 679.474 109.992 679.891 109.133C680.32 108.26 680.945 107.531 681.766 106.945C682.599 106.359 683.615 105.917 684.812 105.617C686.01 105.305 687.378 105.148 688.914 105.148H692.605ZM706.434 111.125L714.734 96.8672H719.441V118H714.734V103.723L706.434 118H701.727V96.8672H706.434V111.125ZM713.484 88.7422H716.98C716.98 89.8229 716.72 90.7799 716.199 91.6133C715.691 92.4336 714.962 93.0781 714.012 93.5469C713.074 94.0156 711.954 94.25 710.652 94.25C708.686 94.25 707.13 93.7422 705.984 92.7266C704.852 91.6979 704.285 90.3698 704.285 88.7422H707.781C707.781 89.4714 707.996 90.1159 708.426 90.6758C708.868 91.2227 709.611 91.4961 710.652 91.4961C711.681 91.4961 712.41 91.2227 712.84 90.6758C713.27 90.1159 713.484 89.4714 713.484 88.7422Z" fill="#FF5757"/>
<path d="M558.953 62.7422H563.836C563.68 64.6042 563.159 66.2643 562.273 67.7227C561.388 69.168 560.145 70.3073 558.543 71.1406C556.941 71.974 554.995 72.3906 552.703 72.3906C550.945 72.3906 549.363 72.0781 547.957 71.4531C546.551 70.8151 545.346 69.9167 544.344 68.7578C543.341 67.5859 542.573 66.1732 542.039 64.5195C541.518 62.8659 541.258 61.0169 541.258 58.9727V56.6094C541.258 54.5651 541.525 52.7161 542.059 51.0625C542.605 49.4089 543.387 47.9961 544.402 46.8242C545.418 45.6393 546.635 44.7344 548.055 44.1094C549.487 43.4844 551.095 43.1719 552.879 43.1719C555.145 43.1719 557.059 43.5885 558.621 44.4219C560.184 45.2552 561.395 46.4076 562.254 47.8789C563.126 49.3503 563.66 51.0365 563.855 52.9375H558.973C558.842 51.7135 558.556 50.6654 558.113 49.793C557.684 48.9206 557.046 48.2565 556.199 47.8008C555.353 47.332 554.246 47.0977 552.879 47.0977C551.759 47.0977 550.783 47.306 549.949 47.7227C549.116 48.1393 548.419 48.7513 547.859 49.5586C547.299 50.3659 546.876 51.362 546.59 52.5469C546.316 53.7188 546.18 55.0599 546.18 56.5703V58.9727C546.18 60.4049 546.303 61.707 546.551 62.8789C546.811 64.0378 547.202 65.0339 547.723 65.8672C548.257 66.7005 548.934 67.3451 549.754 67.8008C550.574 68.2565 551.557 68.4844 552.703 68.4844C554.096 68.4844 555.223 68.263 556.082 67.8203C556.954 67.3776 557.612 66.7331 558.055 65.8867C558.51 65.0273 558.81 63.9792 558.953 62.7422ZM566.922 61.668V61.2188C566.922 59.6953 567.143 58.2826 567.586 56.9805C568.029 55.6654 568.667 54.526 569.5 53.5625C570.346 52.5859 571.375 51.8307 572.586 51.2969C573.81 50.75 575.19 50.4766 576.727 50.4766C578.276 50.4766 579.656 50.75 580.867 51.2969C582.091 51.8307 583.126 52.5859 583.973 53.5625C584.819 54.526 585.464 55.6654 585.906 56.9805C586.349 58.2826 586.57 59.6953 586.57 61.2188V61.668C586.57 63.1914 586.349 64.6042 585.906 65.9062C585.464 67.2083 584.819 68.3477 583.973 69.3242C583.126 70.2878 582.098 71.043 580.887 71.5898C579.676 72.1237 578.302 72.3906 576.766 72.3906C575.216 72.3906 573.829 72.1237 572.605 71.5898C571.395 71.043 570.366 70.2878 569.52 69.3242C568.673 68.3477 568.029 67.2083 567.586 65.9062C567.143 64.6042 566.922 63.1914 566.922 61.668ZM571.629 61.2188V61.668C571.629 62.6185 571.727 63.5169 571.922 64.3633C572.117 65.2096 572.423 65.9518 572.84 66.5898C573.257 67.2279 573.79 67.7292 574.441 68.0938C575.092 68.4583 575.867 68.6406 576.766 68.6406C577.638 68.6406 578.393 68.4583 579.031 68.0938C579.682 67.7292 580.216 67.2279 580.633 66.5898C581.049 65.9518 581.355 65.2096 581.551 64.3633C581.759 63.5169 581.863 62.6185 581.863 61.668V61.2188C581.863 60.2812 581.759 59.3958 581.551 58.5625C581.355 57.7161 581.043 56.9674 580.613 56.3164C580.197 55.6654 579.663 55.1576 579.012 54.793C578.374 54.4154 577.612 54.2266 576.727 54.2266C575.841 54.2266 575.073 54.4154 574.422 54.793C573.784 55.1576 573.257 55.6654 572.84 56.3164C572.423 56.9674 572.117 57.7161 571.922 58.5625C571.727 59.3958 571.629 60.2812 571.629 61.2188ZM599.266 61.9023H595.203V59.5195H598.484C599.318 59.5195 599.982 59.4089 600.477 59.1875C600.984 58.9661 601.342 58.6602 601.551 58.2695C601.772 57.8659 601.883 57.3971 601.883 56.8633C601.883 56.3945 601.772 55.9518 601.551 55.5352C601.342 55.1055 600.984 54.7539 600.477 54.4805C599.969 54.207 599.279 54.0703 598.406 54.0703C597.69 54.0703 597.046 54.1875 596.473 54.4219C595.913 54.6562 595.47 54.9818 595.145 55.3984C594.819 55.8151 594.656 56.2969 594.656 56.8438H589.949C589.949 55.5286 590.32 54.3958 591.062 53.4453C591.818 52.4948 592.827 51.7656 594.09 51.2578C595.353 50.75 596.74 50.4961 598.25 50.4961C599.539 50.4961 600.698 50.6328 601.727 50.9062C602.755 51.1667 603.628 51.5573 604.344 52.0781C605.073 52.5859 605.626 53.224 606.004 53.9922C606.395 54.7474 606.59 55.6263 606.59 56.6289C606.59 57.3451 606.421 58.0221 606.082 58.6602C605.743 59.2982 605.255 59.8646 604.617 60.3594C603.979 60.8411 603.204 61.2188 602.293 61.4922C601.395 61.7656 600.385 61.9023 599.266 61.9023ZM595.203 60.5352H599.266C600.516 60.5352 601.622 60.6589 602.586 60.9062C603.549 61.1406 604.357 61.4922 605.008 61.9609C605.659 62.4297 606.147 63.0091 606.473 63.6992C606.811 64.3763 606.98 65.1576 606.98 66.043C606.98 67.0326 606.766 67.9245 606.336 68.7188C605.919 69.5 605.32 70.1641 604.539 70.7109C603.771 71.2578 602.853 71.6745 601.785 71.9609C600.717 72.2474 599.539 72.3906 598.25 72.3906C596.844 72.3906 595.477 72.1562 594.148 71.6875C592.833 71.2188 591.746 70.4961 590.887 69.5195C590.04 68.5299 589.617 67.2734 589.617 65.75H594.324C594.324 66.2839 594.487 66.7852 594.812 67.2539C595.138 67.7227 595.607 68.1068 596.219 68.4062C596.831 68.6927 597.566 68.8359 598.426 68.8359C599.311 68.8359 600.034 68.6992 600.594 68.4258C601.154 68.1393 601.57 67.7682 601.844 67.3125C602.117 66.8438 602.254 66.349 602.254 65.8281C602.254 65.125 602.117 64.5586 601.844 64.1289C601.57 63.6992 601.154 63.3867 600.594 63.1914C600.034 62.9831 599.331 62.8789 598.484 62.8789H595.203V60.5352ZM614.812 50.8672H619.52L619.285 58.3086C619.22 60.4701 618.973 62.3255 618.543 63.875C618.113 65.4245 617.553 66.7331 616.863 67.8008C616.173 68.8555 615.392 69.7214 614.52 70.3984C613.66 71.0755 612.755 71.6094 611.805 72H610.418V68.2891L611.082 68.25C611.642 67.651 612.124 67.0521 612.527 66.4531C612.944 65.8411 613.296 65.1706 613.582 64.4414C613.868 63.6992 614.09 62.8333 614.246 61.8438C614.415 60.8542 614.526 59.6758 614.578 58.3086L614.812 50.8672ZM616.062 50.8672H629.461V72H624.773V54.8516H616.062V50.8672ZM609.344 68.25H632.352V78.2891H627.645V72H614.109V78.2891H609.324L609.344 68.25ZM647.625 67.7617V57.6836C647.625 56.9284 647.488 56.2773 647.215 55.7305C646.941 55.1836 646.525 54.7604 645.965 54.4609C645.418 54.1615 644.728 54.0117 643.895 54.0117C643.126 54.0117 642.462 54.1419 641.902 54.4023C641.342 54.6628 640.906 55.0143 640.594 55.457C640.281 55.8997 640.125 56.401 640.125 56.9609H635.438C635.438 56.1276 635.639 55.3203 636.043 54.5391C636.447 53.7578 637.033 53.0612 637.801 52.4492C638.569 51.8372 639.487 51.3555 640.555 51.0039C641.622 50.6523 642.82 50.4766 644.148 50.4766C645.737 50.4766 647.143 50.7435 648.367 51.2773C649.604 51.8112 650.574 52.6185 651.277 53.6992C651.993 54.7669 652.352 56.1081 652.352 57.7227V67.1172C652.352 68.0807 652.417 68.9466 652.547 69.7148C652.69 70.4701 652.892 71.1276 653.152 71.6875V72H648.328C648.107 71.4922 647.931 70.8477 647.801 70.0664C647.684 69.2721 647.625 68.5039 647.625 67.7617ZM648.309 59.1484L648.348 62.0586H644.969C644.096 62.0586 643.328 62.1432 642.664 62.3125C642 62.4688 641.447 62.7031 641.004 63.0156C640.561 63.3281 640.229 63.7057 640.008 64.1484C639.786 64.5911 639.676 65.0924 639.676 65.6523C639.676 66.2122 639.806 66.7266 640.066 67.1953C640.327 67.651 640.704 68.0091 641.199 68.2695C641.707 68.5299 642.319 68.6602 643.035 68.6602C643.999 68.6602 644.839 68.4648 645.555 68.0742C646.284 67.6706 646.857 67.1823 647.273 66.6094C647.69 66.0234 647.911 65.4701 647.938 64.9492L649.461 67.0391C649.305 67.5729 649.038 68.1458 648.66 68.7578C648.283 69.3698 647.788 69.9557 647.176 70.5156C646.577 71.0625 645.854 71.5117 645.008 71.8633C644.174 72.2148 643.211 72.3906 642.117 72.3906C640.737 72.3906 639.507 72.1172 638.426 71.5703C637.345 71.0104 636.499 70.2617 635.887 69.3242C635.275 68.3737 634.969 67.2995 634.969 66.1016C634.969 64.9818 635.177 63.9922 635.594 63.1328C636.023 62.2604 636.648 61.5312 637.469 60.9453C638.302 60.3594 639.318 59.9167 640.516 59.6172C641.714 59.3047 643.081 59.1484 644.617 59.1484H648.309ZM667.547 62.957H660.789L660.75 59.6367H666.297C667.208 59.6367 667.957 59.5456 668.543 59.3633C669.142 59.181 669.585 58.9076 669.871 58.543C670.158 58.1654 670.301 57.7096 670.301 57.1758C670.301 56.7331 670.216 56.349 670.047 56.0234C669.878 55.6849 669.617 55.4115 669.266 55.2031C668.927 54.9818 668.497 54.8255 667.977 54.7344C667.469 54.6302 666.876 54.5781 666.199 54.5781H662.352V72H657.645V50.8672H666.199C667.553 50.8672 668.771 50.9844 669.852 51.2188C670.945 51.4531 671.876 51.8112 672.645 52.293C673.413 52.7747 673.999 53.3867 674.402 54.1289C674.819 54.8581 675.027 55.7174 675.027 56.707C675.027 57.3581 674.884 57.9701 674.598 58.543C674.324 59.1159 673.914 59.6237 673.367 60.0664C672.82 60.5091 672.15 60.8737 671.355 61.1602C670.561 61.4336 669.65 61.6029 668.621 61.668L667.547 62.957ZM667.547 72H659.422L661.297 68.2891H667.547C668.38 68.2891 669.07 68.1849 669.617 67.9766C670.164 67.7682 670.568 67.4688 670.828 67.0781C671.102 66.6745 671.238 66.1992 671.238 65.6523C671.238 65.0924 671.108 64.6107 670.848 64.207C670.587 63.8034 670.184 63.4974 669.637 63.2891C669.103 63.0677 668.406 62.957 667.547 62.957H662.176L662.215 59.6367H668.602L669.949 60.9258C671.29 61.0169 672.404 61.3034 673.289 61.7852C674.174 62.2669 674.839 62.8724 675.281 63.6016C675.724 64.3307 675.945 65.125 675.945 65.9844C675.945 66.974 675.757 67.8464 675.379 68.6016C675.014 69.3568 674.467 69.9883 673.738 70.4961C673.022 70.9909 672.143 71.3685 671.102 71.6289C670.06 71.8763 668.875 72 667.547 72ZM691.922 67.7617V57.6836C691.922 56.9284 691.785 56.2773 691.512 55.7305C691.238 55.1836 690.822 54.7604 690.262 54.4609C689.715 54.1615 689.025 54.0117 688.191 54.0117C687.423 54.0117 686.759 54.1419 686.199 54.4023C685.639 54.6628 685.203 55.0143 684.891 55.457C684.578 55.8997 684.422 56.401 684.422 56.9609H679.734C679.734 56.1276 679.936 55.3203 680.34 54.5391C680.743 53.7578 681.329 53.0612 682.098 52.4492C682.866 51.8372 683.784 51.3555 684.852 51.0039C685.919 50.6523 687.117 50.4766 688.445 50.4766C690.034 50.4766 691.44 50.7435 692.664 51.2773C693.901 51.8112 694.871 52.6185 695.574 53.6992C696.29 54.7669 696.648 56.1081 696.648 57.7227V67.1172C696.648 68.0807 696.714 68.9466 696.844 69.7148C696.987 70.4701 697.189 71.1276 697.449 71.6875V72H692.625C692.404 71.4922 692.228 70.8477 692.098 70.0664C691.98 69.2721 691.922 68.5039 691.922 67.7617ZM692.605 59.1484L692.645 62.0586H689.266C688.393 62.0586 687.625 62.1432 686.961 62.3125C686.297 62.4688 685.743 62.7031 685.301 63.0156C684.858 63.3281 684.526 63.7057 684.305 64.1484C684.083 64.5911 683.973 65.0924 683.973 65.6523C683.973 66.2122 684.103 66.7266 684.363 67.1953C684.624 67.651 685.001 68.0091 685.496 68.2695C686.004 68.5299 686.616 68.6602 687.332 68.6602C688.296 68.6602 689.135 68.4648 689.852 68.0742C690.581 67.6706 691.154 67.1823 691.57 66.6094C691.987 66.0234 692.208 65.4701 692.234 64.9492L693.758 67.0391C693.602 67.5729 693.335 68.1458 692.957 68.7578C692.579 69.3698 692.085 69.9557 691.473 70.5156C690.874 71.0625 690.151 71.5117 689.305 71.8633C688.471 72.2148 687.508 72.3906 686.414 72.3906C685.034 72.3906 683.803 72.1172 682.723 71.5703C681.642 71.0104 680.796 70.2617 680.184 69.3242C679.572 68.3737 679.266 67.2995 679.266 66.1016C679.266 64.9818 679.474 63.9922 679.891 63.1328C680.32 62.2604 680.945 61.5312 681.766 60.9453C682.599 60.3594 683.615 59.9167 684.812 59.6172C686.01 59.3047 687.378 59.1484 688.914 59.1484H692.605ZM706.434 65.125L714.734 50.8672H719.441V72H714.734V57.7227L706.434 72H701.727V50.8672H706.434V65.125ZM713.484 42.7422H716.98C716.98 43.8229 716.72 44.7799 716.199 45.6133C715.691 46.4336 714.962 47.0781 714.012 47.5469C713.074 48.0156 711.954 48.25 710.652 48.25C708.686 48.25 707.13 47.7422 705.984 46.7266C704.852 45.6979 704.285 44.3698 704.285 42.7422H707.781C707.781 43.4714 707.996 44.1159 708.426 44.6758C708.868 45.2227 709.611 45.4961 710.652 45.4961C711.681 45.4961 712.41 45.2227 712.84 44.6758C713.27 44.1159 713.484 43.4714 713.484 42.7422Z" fill="#FF5757"/>
</svg>
