<svg width="135" height="77" viewBox="0 0 135 77" fill="none" xmlns="http://www.w3.org/2000/svg">
<path d="M20.4102 23.8047L27.8906 0.5625H33.3008L23.1055 29H19.4531L20.4102 23.8047ZM13.4961 0.5625L20.918 23.8047L21.9336 29H18.2617L8.10547 0.5625H13.4961ZM58.8867 14V15.5625C58.8867 17.7109 58.6068 19.638 58.0469 21.3438C57.487 23.0495 56.6862 24.5013 55.6445 25.6992C54.6159 26.8971 53.3789 27.8151 51.9336 28.4531C50.4883 29.0781 48.8867 29.3906 47.1289 29.3906C45.3841 29.3906 43.7891 29.0781 42.3438 28.4531C40.9115 27.8151 39.668 26.8971 38.6133 25.6992C37.5586 24.5013 36.7383 23.0495 36.1523 21.3438C35.5794 19.638 35.293 17.7109 35.293 15.5625V14C35.293 11.8516 35.5794 9.93099 36.1523 8.23828C36.7253 6.53255 37.5326 5.08073 38.5742 3.88281C39.6289 2.67188 40.8724 1.75391 42.3047 1.12891C43.75 0.490885 45.3451 0.171875 47.0898 0.171875C48.8477 0.171875 50.4492 0.490885 51.8945 1.12891C53.3398 1.75391 54.5833 2.67188 55.625 3.88281C56.6667 5.08073 57.4674 6.53255 58.0273 8.23828C58.6003 9.93099 58.8867 11.8516 58.8867 14ZM53.9844 15.5625V13.9609C53.9844 12.3724 53.8281 10.9727 53.5156 9.76172C53.2161 8.53776 52.7669 7.51562 52.168 6.69531C51.582 5.86198 50.8594 5.23698 50 4.82031C49.1406 4.39062 48.1706 4.17578 47.0898 4.17578C46.0091 4.17578 45.0456 4.39062 44.1992 4.82031C43.3529 5.23698 42.6302 5.86198 42.0312 6.69531C41.4453 7.51562 40.9961 8.53776 40.6836 9.76172C40.3711 10.9727 40.2148 12.3724 40.2148 13.9609V15.5625C40.2148 17.151 40.3711 18.5573 40.6836 19.7812C40.9961 21.0052 41.4518 22.0404 42.0508 22.8867C42.6628 23.7201 43.3919 24.3516 44.2383 24.7812C45.0846 25.1979 46.0482 25.4062 47.1289 25.4062C48.2227 25.4062 49.1927 25.1979 50.0391 24.7812C50.8854 24.3516 51.6016 23.7201 52.1875 22.8867C52.7734 22.0404 53.2161 21.0052 53.5156 19.7812C53.8281 18.5573 53.9844 17.151 53.9844 15.5625ZM81.6016 25.1133V29H67.3242V25.1133H81.6016ZM68.6914 0.5625V29H63.7891V0.5625H68.6914ZM105.938 14.4688V25.3281C105.534 25.862 104.902 26.4479 104.043 27.0859C103.197 27.7109 102.07 28.2513 100.664 28.707C99.2578 29.1628 97.5065 29.3906 95.4102 29.3906C93.6263 29.3906 91.9922 29.0911 90.5078 28.4922C89.0234 27.8802 87.7409 26.9883 86.6602 25.8164C85.5924 24.6445 84.7656 23.2188 84.1797 21.5391C83.5938 19.8464 83.3008 17.9193 83.3008 15.7578V13.7852C83.3008 11.6367 83.5677 9.72266 84.1016 8.04297C84.6484 6.35026 85.4297 4.91797 86.4453 3.74609C87.4609 2.57422 88.6849 1.6888 90.1172 1.08984C91.5625 0.477865 93.1966 0.171875 95.0195 0.171875C97.3503 0.171875 99.2773 0.5625 100.801 1.34375C102.337 2.11198 103.522 3.17969 104.355 4.54688C105.189 5.91406 105.716 7.47656 105.938 9.23438H101.133C100.977 8.24479 100.671 7.35938 100.215 6.57812C99.7721 5.79688 99.1341 5.1849 98.3008 4.74219C97.4805 4.28646 96.4128 4.05859 95.0977 4.05859C93.9648 4.05859 92.9688 4.27344 92.1094 4.70312C91.25 5.13281 90.5339 5.76432 89.9609 6.59766C89.401 7.43099 88.9779 8.44661 88.6914 9.64453C88.4049 10.8424 88.2617 12.2096 88.2617 13.7461V15.7578C88.2617 17.3203 88.4245 18.707 88.75 19.918C89.0885 21.1289 89.5703 22.151 90.1953 22.9844C90.8333 23.8177 91.6081 24.4492 92.5195 24.8789C93.431 25.2956 94.4596 25.5039 95.6055 25.5039C96.7253 25.5039 97.6432 25.4128 98.3594 25.2305C99.0755 25.0352 99.6419 24.8073 100.059 24.5469C100.488 24.2734 100.82 24.013 101.055 23.7656V18.1211H95.1367V14.4688H105.938ZM122.441 4.35156L113.945 29H108.809L119.512 0.5625H122.793L122.441 4.35156ZM129.551 29L121.035 4.35156L120.664 0.5625H123.965L134.707 29H129.551ZM129.141 18.4531V22.3398H113.672V18.4531H129.141ZM2.53906 47.5625H6.91406L15.1367 69.4961L23.3398 47.5625H27.7148L16.8555 76H13.3789L2.53906 47.5625ZM0.546875 47.5625H4.70703L5.42969 66.5469V76H0.546875V47.5625ZM25.5469 47.5625H29.7266V76H24.8242V66.5469L25.5469 47.5625ZM54.1602 72.1133V76H39.0625V72.1133H54.1602ZM40.4492 47.5625V76H35.5469V47.5625H40.4492ZM52.1875 59.4375V63.2656H39.0625V59.4375H52.1875ZM54.0625 47.5625V51.4688H39.0625V47.5625H54.0625ZM58.1641 47.5625H68.2227C70.3841 47.5625 72.2266 47.888 73.75 48.5391C75.2734 49.1901 76.4388 50.1536 77.2461 51.4297C78.0664 52.6927 78.4766 54.2552 78.4766 56.1172C78.4766 57.5365 78.2161 58.7865 77.6953 59.8672C77.1745 60.9479 76.4388 61.8594 75.4883 62.6016C74.5378 63.3307 73.4049 63.8971 72.0898 64.3008L70.6055 65.0234H61.5625L61.5234 61.1367H68.3008C69.4727 61.1367 70.4492 60.9284 71.2305 60.5117C72.0117 60.0951 72.5977 59.5286 72.9883 58.8125C73.3919 58.0833 73.5938 57.263 73.5938 56.3516C73.5938 55.362 73.3984 54.5026 73.0078 53.7734C72.6302 53.0312 72.0443 52.4648 71.25 52.0742C70.4557 51.6706 69.4466 51.4688 68.2227 51.4688H63.0664V76H58.1641V47.5625ZM74.3945 76L67.7148 63.2266L72.8516 63.207L79.6289 75.7461V76H74.3945ZM100.156 66.7422H105.039C104.883 68.6042 104.362 70.2643 103.477 71.7227C102.591 73.168 101.348 74.3073 99.7461 75.1406C98.1445 75.974 96.1979 76.3906 93.9062 76.3906C92.1484 76.3906 90.5664 76.0781 89.1602 75.4531C87.7539 74.8151 86.5495 73.9167 85.5469 72.7578C84.5443 71.5859 83.776 70.1732 83.2422 68.5195C82.7214 66.8659 82.4609 65.0169 82.4609 62.9727V60.6094C82.4609 58.5651 82.7279 56.7161 83.2617 55.0625C83.8086 53.4089 84.5898 51.9961 85.6055 50.8242C86.6211 49.6393 87.8385 48.7344 89.2578 48.1094C90.6901 47.4844 92.2982 47.1719 94.082 47.1719C96.3477 47.1719 98.2617 47.5885 99.8242 48.4219C101.387 49.2552 102.598 50.4076 103.457 51.8789C104.329 53.3503 104.863 55.0365 105.059 56.9375H100.176C100.046 55.7135 99.7591 54.6654 99.3164 53.793C98.8867 52.9206 98.2487 52.2565 97.4023 51.8008C96.556 51.332 95.4492 51.0977 94.082 51.0977C92.9622 51.0977 91.9857 51.306 91.1523 51.7227C90.319 52.1393 89.6224 52.7513 89.0625 53.5586C88.5026 54.3659 88.0794 55.362 87.793 56.5469C87.5195 57.7188 87.3828 59.0599 87.3828 60.5703V62.9727C87.3828 64.4049 87.5065 65.707 87.7539 66.8789C88.0143 68.0378 88.4049 69.0339 88.9258 69.8672C89.4596 70.7005 90.1367 71.3451 90.957 71.8008C91.7773 72.2565 92.7604 72.4844 93.9062 72.4844C95.2995 72.4844 96.4258 72.263 97.2852 71.8203C98.1576 71.3776 98.8151 70.7331 99.2578 69.8867C99.7135 69.0273 100.013 67.9792 100.156 66.7422ZM128.281 59.4375V63.3242H113.184V59.4375H128.281ZM114.395 47.5625V76H109.492V47.5625H114.395ZM132.051 47.5625V76H127.168V47.5625H132.051Z" fill="black"/>
</svg>
